<svg width="34" height="29" viewBox="0 0 34 29" fill="none" xmlns="http://www.w3.org/2000/svg">
<path d="M7.00004 6.83329C7.00004 5.94924 7.35123 5.10139 7.97635 4.47627C8.60147 3.85115 9.44932 3.49996 10.3334 3.49996C11.2174 3.49996 12.0653 3.85115 12.6904 4.47627C13.3155 5.10139 13.6667 5.94924 13.6667 6.83329C13.6667 7.71735 13.3155 8.56519 12.6904 9.19032C12.0653 9.81544 11.2174 10.1666 10.3334 10.1666C9.44932 10.1666 8.60147 9.81544 7.97635 9.19032C7.35123 8.56519 7.00004 7.71735 7.00004 6.83329ZM10.3334 0.166626C8.56526 0.166626 6.86957 0.869005 5.61933 2.11925C4.36909 3.36949 3.66671 5.06518 3.66671 6.83329C3.66671 8.6014 4.36909 10.2971 5.61933 11.5473C6.86957 12.7976 8.56526 13.5 10.3334 13.5C12.1015 13.5 13.7972 12.7976 15.0474 11.5473C16.2977 10.2971 17 8.6014 17 6.83329C17 5.06518 16.2977 3.36949 15.0474 2.11925C13.7972 0.869005 12.1015 0.166626 10.3334 0.166626ZM23.6667 8.49996C23.6667 8.05793 23.8423 7.63401 24.1549 7.32145C24.4674 7.00889 24.8913 6.83329 25.3334 6.83329C25.7754 6.83329 26.1993 7.00889 26.5119 7.32145C26.8244 7.63401 27 8.05793 27 8.49996C27 8.94199 26.8244 9.36591 26.5119 9.67847C26.1993 9.99103 25.7754 10.1666 25.3334 10.1666C24.8913 10.1666 24.4674 9.99103 24.1549 9.67847C23.8423 9.36591 23.6667 8.94199 23.6667 8.49996ZM25.3334 3.49996C24.0073 3.49996 22.7355 4.02674 21.7978 4.96443C20.8602 5.90211 20.3334 7.17388 20.3334 8.49996C20.3334 9.82604 20.8602 11.0978 21.7978 12.0355C22.7355 12.9732 24.0073 13.5 25.3334 13.5C26.6595 13.5 27.9312 12.9732 28.8689 12.0355C29.8066 11.0978 30.3334 9.82604 30.3334 8.49996C30.3334 7.17388 29.8066 5.90211 28.8689 4.96443C27.9312 4.02674 26.6595 3.49996 25.3334 3.49996ZM0.333374 21C0.333374 18.7 2.20004 16.8333 4.50004 16.8333H16.1667C18.4667 16.8333 20.3334 18.7 20.3334 21V21.16C20.3311 21.2815 20.3222 21.4028 20.3067 21.5233C20.2758 21.8152 20.2257 22.1047 20.1567 22.39C19.9316 23.3118 19.5297 24.1812 18.9734 24.95C17.56 26.8933 14.9267 28.5 10.3334 28.5C5.74004 28.5 3.10671 26.8933 1.69337 24.95C0.96514 23.9395 0.506272 22.7602 0.360041 21.5233L0.333374 21.1566V21ZM3.66671 21.0866L3.67337 21.1766C3.68226 21.2722 3.70782 21.4155 3.75004 21.6066C3.84004 21.9833 4.02337 22.4866 4.39004 22.99C5.05671 23.91 6.59004 25.1666 10.3334 25.1666C14.0767 25.1666 15.6067 23.91 16.2767 22.99C16.6774 22.4295 16.9266 21.775 17 21.09V21C17 20.7789 16.9122 20.567 16.756 20.4107C16.5997 20.2544 16.3877 20.1666 16.1667 20.1666H4.50004C4.27903 20.1666 4.06707 20.2544 3.91079 20.4107C3.7545 20.567 3.66671 20.7789 3.66671 21V21.0866ZM25.33 26.8333C24.15 26.8288 23.1134 26.7177 22.22 26.5C22.8272 25.5367 23.2594 24.4737 23.4967 23.36C24.0123 23.4489 24.6234 23.4955 25.33 23.5C28.2967 23.5 29.4234 22.5933 29.8634 22.0433C30.1045 21.7367 30.265 21.3746 30.33 20.99V20.9733C30.3231 20.7569 30.2323 20.5518 30.0767 20.4012C29.9212 20.2506 29.7132 20.1665 29.4967 20.1666H23.62C23.4882 18.9739 23.0709 17.8305 22.4034 16.8333H29.5C31.8 16.8333 33.6667 18.7 33.6667 21V21.0566C33.6638 21.1603 33.656 21.2637 33.6434 21.3666C33.5115 22.3755 33.1057 23.3289 32.47 24.1233C31.24 25.6566 29.0367 26.8333 25.3334 26.8333" fill="white"/>
</svg>
