<svg width="50" height="50" viewBox="0 0 50 50" fill="none" xmlns="http://www.w3.org/2000/svg">
<path d="M35.9375 46.875L32.5953 45.2922C31.2602 44.6561 30.132 43.6556 29.3411 42.406C28.5501 41.1564 28.1285 39.7086 28.125 38.2297V28.125H43.75V38.2313C43.7465 39.7102 43.3249 41.1579 42.5339 42.4075C41.743 43.6572 40.6148 44.6577 39.2797 45.2938L35.9375 46.875ZM31.25 31.25V38.2313C31.2524 39.1182 31.5056 39.9864 31.9803 40.7356C32.455 41.4849 33.1319 42.0846 33.9328 42.4656L35.9375 43.4156L37.9422 42.4672C38.7434 42.0861 39.4204 41.4861 39.8952 40.7366C40.3699 39.987 40.6229 39.1185 40.625 38.2313V31.25H31.25Z" fill="#5CB7FF"/>
<path d="M25 43.75H9.375V6.24999H21.875V15.625C21.8775 16.453 22.2075 17.2464 22.793 17.832C23.3785 18.4175 24.172 18.7475 25 18.75H34.375V23.4375H37.5V15.625C37.5055 15.4196 37.4665 15.2155 37.3855 15.0267C37.3046 14.8379 37.1838 14.6689 37.0313 14.5312L26.0938 3.59374C25.9568 3.4404 25.7879 3.31896 25.5989 3.23797C25.4099 3.15698 25.2055 3.11841 25 3.12499H9.375C8.54696 3.12746 7.75354 3.45749 7.16802 4.04301C6.58251 4.62853 6.25247 5.42195 6.25 6.24999V43.75C6.25247 44.578 6.58251 45.3714 7.16802 45.957C7.75354 46.5425 8.54696 46.8725 9.375 46.875H25V43.75ZM25 6.87499L33.75 15.625H25V6.87499Z" fill="#5CB7FF"/>
</svg>
