<svg width="50" height="50" viewBox="0 0 50 50" fill="none" xmlns="http://www.w3.org/2000/svg">
<path d="M40.625 9.375C38.9225 11.0036 36.8978 12.2575 34.6812 13.0562C32.3438 13.4688 25.875 10.4687 22.6875 13.5312C22.1562 14.0625 21.5 14.5938 20.8125 15.125C19.3125 14.4688 17 13.4688 15.3125 12.5C13.625 11.5312 9.375 9.375 9.375 9.375L0 20.3125C0 20.3125 2.3125 23.4375 3.75 25.5C4.6875 26.875 5.84375 28.9688 6.59375 30.375L5.53125 31.625C5.27862 32.1309 5.18808 32.7023 5.27196 33.2615C5.35584 33.8207 5.61006 34.3405 6 34.75C6.45132 35.0903 7.00145 35.2738 7.56667 35.2727C8.1319 35.2716 8.68129 35.0858 9.13125 34.7437C8.96418 34.9394 8.83773 35.1663 8.75929 35.4113C8.68085 35.6563 8.65199 35.9145 8.67439 36.1708C8.69679 36.427 8.77 36.6763 8.88975 36.904C9.0095 37.1317 9.1734 37.3332 9.37187 37.4969C9.84971 37.7737 10.3924 37.919 10.9446 37.9179C11.4968 37.9168 12.0389 37.7693 12.5156 37.4906C12.1586 37.9357 11.9632 38.4887 11.9615 39.0593C11.9598 39.6299 12.1519 40.1841 12.5062 40.6313C12.9668 40.7912 13.4582 40.8423 13.9418 40.7805C14.4255 40.7187 14.8882 40.5456 15.2937 40.275C15.0907 40.7533 15.0379 41.282 15.1423 41.791C15.2466 42.3 15.5033 42.7652 15.8781 43.125C16.407 43.3578 16.9861 43.4535 17.5618 43.4033C18.1375 43.353 18.6913 43.1584 19.1719 42.8375L20.7844 41.3781C22.2594 42.8469 24.2938 43.7562 26.5406 43.7562L26.7312 43.7531C27.4718 43.6903 28.1813 43.427 28.7836 42.9915C29.3858 42.556 29.8582 41.9648 30.15 41.2812C30.6062 41.4562 31.125 41.575 31.675 41.575C32.4125 41.575 33.0969 41.3625 33.675 40.9969C35.5031 39.7875 35.0656 38.85 35.0656 38.85C35.7157 39.1298 36.4378 39.1962 37.1279 39.0395C37.8181 38.8828 38.4407 38.5112 38.9062 37.9781C39.39 37.4833 39.695 36.8413 39.7731 36.1537C39.8512 35.466 39.6979 34.772 39.3375 34.1812C39.3575 34.1924 39.3802 34.1978 39.4031 34.1969C40.7188 34.1969 41.8625 33.4719 42.4594 32.4031C42.7542 31.6437 42.8541 30.8226 42.7498 30.0146C42.6456 29.2067 42.3405 28.4378 41.8625 27.7781L41.8719 27.7938C44.4344 27.2938 44.3406 26.0125 45.5906 24.1375C46.7727 22.606 48.2457 21.3231 49.925 20.3625L40.625 9.375ZM40.4688 31.4375C39.0938 32.8125 38.0312 32.2188 35.6875 30.4375C33.3438 28.6562 28.6875 25.3125 28.6875 25.3125C28.8781 26.2656 29.3188 27.0937 29.9406 27.7531C30.9375 28.875 33.9062 31.4375 35.3125 32.75C36.1875 33.5625 38.4375 35.1875 37.125 36.4375C35.8125 37.6875 34.7812 36.4375 32.625 34.6875C30.4687 32.9375 25.6562 28.625 25.6562 28.625C25.6303 29.0383 25.6921 29.4525 25.8375 29.8402C25.9829 30.228 26.2087 30.5806 26.5 30.875C27.0312 31.5 30 34.375 31.25 35.6875C32.5 37 33.5938 37.7812 32.5312 38.8125C31.4688 39.8438 29.3125 38.2188 28.125 37C26.2812 35.2188 22.625 31.9062 22.625 31.9062L22.6219 32.0719C22.6219 32.9594 22.9281 33.7719 23.4438 34.4156C24.3438 35.5969 26.0937 37.1281 27.1562 38.3156C28.2187 39.5031 28.8437 40.5031 27.1562 41.4406C25.4687 42.3781 22.9688 40.0656 21.875 38.9406V38.9344C21.8784 38.6252 21.7671 38.3257 21.5625 38.0937C21.188 37.7487 20.7268 37.5118 20.2282 37.4083C19.7295 37.3048 19.2121 37.3387 18.7313 37.5063C18.9286 37.3289 19.0868 37.1123 19.1956 36.8703C19.3045 36.6284 19.3616 36.3663 19.3634 36.101C19.3651 35.8357 19.3115 35.5729 19.2059 35.3295C19.1003 35.0861 18.945 34.8675 18.75 34.6875C18.3398 34.3767 17.8391 34.2088 17.3245 34.2093C16.8098 34.2099 16.3095 34.3789 15.9 34.6906C16.1071 34.4928 16.2669 34.2509 16.3677 33.9829C16.4684 33.7148 16.5075 33.4275 16.482 33.1423C16.4565 32.8571 16.367 32.5813 16.2203 32.3354C16.0735 32.0895 15.8733 31.8798 15.6344 31.7219C15.0749 31.3704 14.4185 31.2052 13.7593 31.2501C13.1002 31.295 12.4722 31.5477 11.9656 31.9719C12.3042 31.5615 12.4711 31.0362 12.4315 30.5057C12.3919 29.9752 12.1489 29.4805 11.7531 29.125C11.2603 28.669 10.6337 28.3839 9.96617 28.3119C9.29864 28.2398 8.62565 28.3847 8.04688 28.725L5.96875 25.2156C4.53125 22.9344 2.84375 20.5594 2.84375 20.5594L9.96875 11.9031C9.96875 11.9031 12.5 13.4656 14.5938 14.6531C15.625 15.2469 17.4062 16.0281 18.75 16.6531C16.625 18.2469 14.8438 19.7781 15.375 20.8406C16.321 21.5219 17.4527 21.8978 18.6183 21.9179C19.784 21.938 20.9279 21.6014 21.8969 20.9531C23.1393 20.1249 24.6006 19.6864 26.0938 19.6938C27.1781 19.6938 28.2094 19.9188 29.1438 20.3281C30.875 21.4969 34.0625 24.3719 36.9688 26.1844C40.625 28.8406 41.3438 30.5594 40.4688 31.4344V31.4375Z" fill="white"/>
</svg>
