<svg width="33" height="32" viewBox="0 0 33 32" fill="none" xmlns="http://www.w3.org/2000/svg">
<path d="M30 18.2456H18.75V29.4956C18.75 30.0923 18.5129 30.6646 18.091 31.0866C17.669 31.5086 17.0967 31.7456 16.5 31.7456C15.9033 31.7456 15.331 31.5086 14.909 31.0866C14.4871 30.6646 14.25 30.0923 14.25 29.4956V18.2456H3C2.40326 18.2456 1.83097 18.0086 1.40901 17.5866C0.987053 17.1646 0.75 16.5923 0.75 15.9956C0.75 15.3989 0.987053 14.8266 1.40901 14.4046C1.83097 13.9827 2.40326 13.7456 3 13.7456H14.25V2.49561C14.25 1.89887 14.4871 1.32657 14.909 0.904615C15.331 0.482658 15.9033 0.245605 16.5 0.245605C17.0967 0.245605 17.669 0.482658 18.091 0.904615C18.5129 1.32657 18.75 1.89887 18.75 2.49561V13.7456H30C30.5967 13.7456 31.169 13.9827 31.591 14.4046C32.0129 14.8266 32.25 15.3989 32.25 15.9956C32.25 16.5923 32.0129 17.1646 31.591 17.5866C31.169 18.0086 30.5967 18.2456 30 18.2456Z" fill="white"/>
</svg>
