<svg width="172" height="41" viewBox="0 0 172 41" fill="none" xmlns="http://www.w3.org/2000/svg">
<path d="M13.175 32.45C10.685 32.45 8.525 31.94 6.695 30.92C4.865 29.87 3.44 28.445 2.42 26.645C1.43 24.815 0.935 22.73 0.935 20.39C0.935 17.75 1.46 15.5 2.51 13.64C3.59 11.75 4.985 10.31 6.695 9.32C8.405 8.3 10.22 7.79 12.14 7.79C13.61 7.79 15.005 8.09 16.325 8.69C17.645 9.26 18.815 10.07 19.835 11.12C20.885 12.14 21.71 13.355 22.31 14.765C22.91 16.145 23.225 17.66 23.255 19.31C23.225 19.91 22.985 20.405 22.535 20.795C22.085 21.185 21.56 21.38 20.96 21.38H3.455L2.375 17.555H19.295L18.44 18.365V17.24C18.38 16.19 18.035 15.275 17.405 14.495C16.775 13.685 15.995 13.07 15.065 12.65C14.135 12.2 13.16 11.975 12.14 11.975C11.24 11.975 10.37 12.125 9.53 12.425C8.72 12.695 7.985 13.145 7.325 13.775C6.695 14.405 6.185 15.245 5.795 16.295C5.435 17.315 5.255 18.59 5.255 20.12C5.255 21.77 5.6 23.21 6.29 24.44C6.98 25.67 7.91 26.63 9.08 27.32C10.25 27.98 11.54 28.31 12.95 28.31C14.06 28.31 14.975 28.205 15.695 27.995C16.415 27.755 17.015 27.47 17.495 27.14C17.975 26.81 18.395 26.495 18.755 26.195C19.205 25.925 19.655 25.79 20.105 25.79C20.645 25.79 21.095 25.985 21.455 26.375C21.815 26.735 21.995 27.17 21.995 27.68C21.995 28.34 21.665 28.94 21.005 29.48C20.195 30.26 19.07 30.95 17.63 31.55C16.22 32.15 14.735 32.45 13.175 32.45ZM25.9564 28.31C25.6864 27.89 25.5664 27.41 25.5964 26.87C25.6264 26.3 25.9414 25.82 26.5414 25.43C26.9614 25.16 27.3964 25.055 27.8464 25.115C28.3264 25.145 28.7764 25.37 29.1964 25.79C30.0364 26.72 30.9664 27.455 31.9864 27.995C33.0364 28.535 34.2964 28.805 35.7664 28.805C36.3664 28.775 36.9814 28.685 37.6114 28.535C38.2414 28.355 38.7814 28.055 39.2314 27.635C39.6814 27.185 39.9064 26.54 39.9064 25.7C39.9064 24.95 39.6664 24.35 39.1864 23.9C38.7064 23.45 38.0764 23.09 37.2964 22.82C36.5164 22.52 35.6764 22.25 34.7764 22.01C33.8164 21.74 32.8414 21.44 31.8514 21.11C30.8914 20.78 30.0214 20.36 29.2414 19.85C28.4614 19.31 27.8164 18.62 27.3064 17.78C26.8264 16.94 26.5864 15.905 26.5864 14.675C26.5864 13.265 26.9764 12.05 27.7564 11.03C28.5664 10.01 29.6014 9.215 30.8614 8.645C32.1514 8.075 33.5464 7.79 35.0464 7.79C35.9164 7.79 36.8314 7.91 37.7914 8.15C38.7514 8.36 39.6814 8.705 40.5814 9.185C41.4814 9.665 42.2614 10.295 42.9214 11.075C43.2214 11.465 43.3864 11.93 43.4164 12.47C43.4764 13.01 43.2364 13.49 42.6964 13.91C42.3364 14.21 41.9014 14.345 41.3914 14.315C40.8814 14.285 40.4614 14.12 40.1314 13.82C39.5614 13.1 38.8264 12.545 37.9264 12.155C37.0264 11.735 36.0064 11.525 34.8664 11.525C34.2964 11.525 33.6964 11.615 33.0664 11.795C32.4664 11.945 31.9564 12.23 31.5364 12.65C31.1164 13.07 30.9064 13.685 30.9064 14.495C30.9064 15.245 31.1464 15.845 31.6264 16.295C32.1364 16.745 32.7964 17.12 33.6064 17.42C34.4164 17.72 35.3014 17.99 36.2614 18.23C37.1914 18.47 38.1064 18.755 39.0064 19.085C39.9364 19.415 40.7614 19.85 41.4814 20.39C42.2314 20.9 42.8314 21.575 43.2814 22.415C43.7614 23.225 44.0014 24.26 44.0014 25.52C44.0014 26.99 43.5664 28.25 42.6964 29.3C41.8564 30.32 40.7764 31.1 39.4564 31.64C38.1664 32.18 36.8014 32.45 35.3614 32.45C33.6514 32.45 31.9414 32.15 30.2314 31.55C28.5514 30.92 27.1264 29.84 25.9564 28.31ZM67.2457 8.24C67.9057 8.24 68.4457 8.465 68.8657 8.915C69.2857 9.335 69.4957 9.875 69.4957 10.535V38.705C69.4957 39.365 69.2857 39.905 68.8657 40.325C68.4457 40.775 67.9057 41 67.2457 41C66.6157 41 66.0757 40.775 65.6257 40.325C65.2057 39.905 64.9957 39.365 64.9957 38.705V26.465L65.9407 26.51C65.9407 27.05 65.7157 27.665 65.2657 28.355C64.8457 29.015 64.2607 29.66 63.5107 30.29C62.7607 30.92 61.8757 31.445 60.8557 31.865C59.8357 32.255 58.7407 32.45 57.5707 32.45C55.5007 32.45 53.6407 31.925 51.9907 30.875C50.3407 29.795 49.0357 28.34 48.0757 26.51C47.1157 24.65 46.6357 22.52 46.6357 20.12C46.6357 17.72 47.1157 15.605 48.0757 13.775C49.0357 11.915 50.3257 10.46 51.9457 9.41C53.5957 8.33 55.4257 7.79 57.4357 7.79C58.6957 7.79 59.8657 8 60.9457 8.42C62.0557 8.84 63.0157 9.38 63.8257 10.04C64.6357 10.7 65.2657 11.405 65.7157 12.155C66.1657 12.875 66.3907 13.565 66.3907 14.225L64.9957 14.36V10.535C64.9957 9.905 65.2057 9.365 65.6257 8.915C66.0757 8.465 66.6157 8.24 67.2457 8.24ZM58.0657 28.31C59.5057 28.31 60.7507 27.95 61.8007 27.23C62.8807 26.51 63.7207 25.535 64.3207 24.305C64.9207 23.075 65.2207 21.68 65.2207 20.12C65.2207 18.56 64.9207 17.165 64.3207 15.935C63.7207 14.705 62.8807 13.73 61.8007 13.01C60.7207 12.29 59.4757 11.93 58.0657 11.93C56.6857 11.93 55.4557 12.29 54.3757 13.01C53.3257 13.73 52.4857 14.705 51.8557 15.935C51.2557 17.165 50.9557 18.56 50.9557 20.12C50.9557 21.68 51.2557 23.075 51.8557 24.305C52.4857 25.535 53.3257 26.51 54.3757 27.23C55.4557 27.95 56.6857 28.31 58.0657 28.31ZM92.4499 8.33C93.0799 8.33 93.6049 8.555 94.0249 9.005C94.4749 9.425 94.6999 9.965 94.6999 10.625V22.46C94.6999 25.58 93.8299 28.025 92.0899 29.795C90.3499 31.535 87.8899 32.405 84.7099 32.405C81.5599 32.405 79.1149 31.535 77.3749 29.795C75.6649 28.025 74.8099 25.58 74.8099 22.46V10.625C74.8099 9.965 75.0199 9.425 75.4399 9.005C75.8599 8.555 76.3999 8.33 77.0599 8.33C77.6899 8.33 78.2149 8.555 78.6349 9.005C79.0849 9.425 79.3099 9.965 79.3099 10.625V22.46C79.3099 24.41 79.7599 25.865 80.6599 26.825C81.5899 27.785 82.9399 28.265 84.7099 28.265C86.5099 28.265 87.8749 27.785 88.8049 26.825C89.7349 25.865 90.1999 24.41 90.1999 22.46V10.625C90.1999 9.965 90.4099 9.425 90.8299 9.005C91.2499 8.555 91.7899 8.33 92.4499 8.33ZM104.197 29.705C104.197 30.365 103.987 30.92 103.567 31.37C103.147 31.79 102.607 32 101.947 32C101.317 32 100.777 31.79 100.327 31.37C99.9073 30.92 99.6973 30.365 99.6973 29.705V10.445C99.6973 9.785 99.9073 9.245 100.327 8.825C100.777 8.375 101.317 8.15 101.947 8.15C102.607 8.15 103.147 8.375 103.567 8.825C103.987 9.245 104.197 9.785 104.197 10.445V29.705ZM101.902 5.18C101.032 5.18 100.402 5.03 100.012 4.73C99.6223 4.4 99.4273 3.86 99.4273 3.11V2.39C99.4273 1.64 99.6373 1.115 100.057 0.814999C100.477 0.514999 101.107 0.365 101.947 0.365C102.847 0.365 103.492 0.529999 103.882 0.859999C104.272 1.16 104.467 1.67 104.467 2.39V3.11C104.467 3.89 104.257 4.43 103.837 4.73C103.447 5.03 102.802 5.18 101.902 5.18ZM107.866 28.31C107.596 27.89 107.476 27.41 107.506 26.87C107.536 26.3 107.851 25.82 108.451 25.43C108.871 25.16 109.306 25.055 109.756 25.115C110.236 25.145 110.686 25.37 111.106 25.79C111.946 26.72 112.876 27.455 113.896 27.995C114.946 28.535 116.206 28.805 117.676 28.805C118.276 28.775 118.891 28.685 119.521 28.535C120.151 28.355 120.691 28.055 121.141 27.635C121.591 27.185 121.816 26.54 121.816 25.7C121.816 24.95 121.576 24.35 121.096 23.9C120.616 23.45 119.986 23.09 119.206 22.82C118.426 22.52 117.586 22.25 116.686 22.01C115.726 21.74 114.751 21.44 113.761 21.11C112.801 20.78 111.931 20.36 111.151 19.85C110.371 19.31 109.726 18.62 109.216 17.78C108.736 16.94 108.496 15.905 108.496 14.675C108.496 13.265 108.886 12.05 109.666 11.03C110.476 10.01 111.511 9.215 112.771 8.645C114.061 8.075 115.456 7.79 116.956 7.79C117.826 7.79 118.741 7.91 119.701 8.15C120.661 8.36 121.591 8.705 122.491 9.185C123.391 9.665 124.171 10.295 124.831 11.075C125.131 11.465 125.296 11.93 125.326 12.47C125.386 13.01 125.146 13.49 124.606 13.91C124.246 14.21 123.811 14.345 123.301 14.315C122.791 14.285 122.371 14.12 122.041 13.82C121.471 13.1 120.736 12.545 119.836 12.155C118.936 11.735 117.916 11.525 116.776 11.525C116.206 11.525 115.606 11.615 114.976 11.795C114.376 11.945 113.866 12.23 113.446 12.65C113.026 13.07 112.816 13.685 112.816 14.495C112.816 15.245 113.056 15.845 113.536 16.295C114.046 16.745 114.706 17.12 115.516 17.42C116.326 17.72 117.211 17.99 118.171 18.23C119.101 18.47 120.016 18.755 120.916 19.085C121.846 19.415 122.671 19.85 123.391 20.39C124.141 20.9 124.741 21.575 125.191 22.415C125.671 23.225 125.911 24.26 125.911 25.52C125.911 26.99 125.476 28.25 124.606 29.3C123.766 30.32 122.686 31.1 121.366 31.64C120.076 32.18 118.711 32.45 117.271 32.45C115.561 32.45 113.851 32.15 112.141 31.55C110.461 30.92 109.036 29.84 107.866 28.31ZM128.365 28.31C128.095 27.89 127.975 27.41 128.005 26.87C128.035 26.3 128.35 25.82 128.95 25.43C129.37 25.16 129.805 25.055 130.255 25.115C130.735 25.145 131.185 25.37 131.605 25.79C132.445 26.72 133.375 27.455 134.395 27.995C135.445 28.535 136.705 28.805 138.175 28.805C138.775 28.775 139.39 28.685 140.02 28.535C140.65 28.355 141.19 28.055 141.64 27.635C142.09 27.185 142.315 26.54 142.315 25.7C142.315 24.95 142.075 24.35 141.595 23.9C141.115 23.45 140.485 23.09 139.705 22.82C138.925 22.52 138.085 22.25 137.185 22.01C136.225 21.74 135.25 21.44 134.26 21.11C133.3 20.78 132.43 20.36 131.65 19.85C130.87 19.31 130.225 18.62 129.715 17.78C129.235 16.94 128.995 15.905 128.995 14.675C128.995 13.265 129.385 12.05 130.165 11.03C130.975 10.01 132.01 9.215 133.27 8.645C134.56 8.075 135.955 7.79 137.455 7.79C138.325 7.79 139.24 7.91 140.2 8.15C141.16 8.36 142.09 8.705 142.99 9.185C143.89 9.665 144.67 10.295 145.33 11.075C145.63 11.465 145.795 11.93 145.825 12.47C145.885 13.01 145.645 13.49 145.105 13.91C144.745 14.21 144.31 14.345 143.8 14.315C143.29 14.285 142.87 14.12 142.54 13.82C141.97 13.1 141.235 12.545 140.335 12.155C139.435 11.735 138.415 11.525 137.275 11.525C136.705 11.525 136.105 11.615 135.475 11.795C134.875 11.945 134.365 12.23 133.945 12.65C133.525 13.07 133.315 13.685 133.315 14.495C133.315 15.245 133.555 15.845 134.035 16.295C134.545 16.745 135.205 17.12 136.015 17.42C136.825 17.72 137.71 17.99 138.67 18.23C139.6 18.47 140.515 18.755 141.415 19.085C142.345 19.415 143.17 19.85 143.89 20.39C144.64 20.9 145.24 21.575 145.69 22.415C146.17 23.225 146.41 24.26 146.41 25.52C146.41 26.99 145.975 28.25 145.105 29.3C144.265 30.32 143.185 31.1 141.865 31.64C140.575 32.18 139.21 32.45 137.77 32.45C136.06 32.45 134.35 32.15 132.64 31.55C130.96 30.92 129.535 29.84 128.365 28.31ZM161.284 32.45C158.794 32.45 156.634 31.94 154.804 30.92C152.974 29.87 151.549 28.445 150.529 26.645C149.539 24.815 149.044 22.73 149.044 20.39C149.044 17.75 149.569 15.5 150.619 13.64C151.699 11.75 153.094 10.31 154.804 9.32C156.514 8.3 158.329 7.79 160.249 7.79C161.719 7.79 163.114 8.09 164.434 8.69C165.754 9.26 166.924 10.07 167.944 11.12C168.994 12.14 169.819 13.355 170.419 14.765C171.019 16.145 171.334 17.66 171.364 19.31C171.334 19.91 171.094 20.405 170.644 20.795C170.194 21.185 169.669 21.38 169.069 21.38H151.564L150.484 17.555H167.404L166.549 18.365V17.24C166.489 16.19 166.144 15.275 165.514 14.495C164.884 13.685 164.104 13.07 163.174 12.65C162.244 12.2 161.269 11.975 160.249 11.975C159.349 11.975 158.479 12.125 157.639 12.425C156.829 12.695 156.094 13.145 155.434 13.775C154.804 14.405 154.294 15.245 153.904 16.295C153.544 17.315 153.364 18.59 153.364 20.12C153.364 21.77 153.709 23.21 154.399 24.44C155.089 25.67 156.019 26.63 157.189 27.32C158.359 27.98 159.649 28.31 161.059 28.31C162.169 28.31 163.084 28.205 163.804 27.995C164.524 27.755 165.124 27.47 165.604 27.14C166.084 26.81 166.504 26.495 166.864 26.195C167.314 25.925 167.764 25.79 168.214 25.79C168.754 25.79 169.204 25.985 169.564 26.375C169.924 26.735 170.104 27.17 170.104 27.68C170.104 28.34 169.774 28.94 169.114 29.48C168.304 30.26 167.179 30.95 165.739 31.55C164.329 32.15 162.844 32.45 161.284 32.45Z" fill="#1A3659"/>
</svg>
